<svg width="570" height="570" viewBox="0 0 570 570" fill="none" xmlns="http://www.w3.org/2000/svg">
<path d="M0 285C0 127.599 127.599 0 285 0V0C442.401 0 570 127.599 570 285V285C570 442.401 442.401 570 285 570V570C127.599 570 0 442.401 0 285V285Z" fill="#131313"/>
<path d="M369.958 258.375H199.042C185.557 258.375 174.625 270.128 174.625 284.625V376.5C174.625 390.997 185.557 402.75 199.042 402.75H369.958C383.443 402.75 394.375 390.997 394.375 376.5V284.625C394.375 270.128 383.443 258.375 369.958 258.375Z" stroke="#7300FF" stroke-width="23" stroke-linecap="round" stroke-linejoin="round"/>
<path d="M223.458 258.375V205.875C223.458 188.47 229.89 171.778 241.337 159.471C252.785 147.164 268.311 140.25 284.5 140.25C300.689 140.25 316.215 147.164 327.663 159.471C339.111 171.778 345.542 188.47 345.542 205.875V258.375" stroke="#7300FF" stroke-width="23" stroke-linecap="round" stroke-linejoin="round"/>
</svg>
